<svg viewBox="0 0 1024 1024" xmlns="http://www.w3.org/2000/svg">
  <!-- Hooplings app icon master — "Courtside Capy", variant A (chosen 2026-08-28).
       Full-bleed 1024; iOS applies its own corner mask. Regenerate PNGs with
       mobile/assets/brand/render-icons.mjs -->
  <defs>
    <radialGradient id="bg" cx="0.5" cy="0.35" r="0.85">
      <stop offset="0" stop-color="#27355C"/><stop offset="1" stop-color="#1C2742"/>
    </radialGradient>
    <clipPath id="head">
      <path d="M192 542 Q192 330 384 330 L640 330 Q832 330 832 542 L832 1024 L192 1024 Z"/>
    </clipPath>
  </defs>
  <rect width="1024" height="1024" fill="url(#bg)"/>
  <circle cx="306" cy="366" r="86" fill="#9C6B47"/>
  <circle cx="718" cy="366" r="86" fill="#9C6B47"/>
  <circle cx="306" cy="356" r="42" fill="#7E5233"/>
  <circle cx="718" cy="356" r="42" fill="#7E5233"/>
  <path d="M192 542 Q192 330 384 330 L640 330 Q832 330 832 542 L832 1024 L192 1024 Z" fill="#B9885C"/>
  <g clip-path="url(#head)">
    <rect x="150" y="416" width="724" height="122" fill="#E8702A"/>
    <rect x="150" y="512" width="724" height="26" fill="#C85F1D"/>
    <path d="M356 706 Q356 638 452 638 L572 638 Q668 638 668 706 L668 1024 L356 1024 Z" fill="#C99C6E"/>
  </g>
  <ellipse cx="352" cy="622" rx="31" ry="38" fill="#2E2015"/>
  <ellipse cx="672" cy="622" rx="31" ry="38" fill="#2E2015"/>
  <circle cx="362" cy="608" r="9" fill="#F6EFE6" opacity="0.9"/>
  <circle cx="682" cy="608" r="9" fill="#F6EFE6" opacity="0.9"/>
  <ellipse cx="478" cy="768" rx="16" ry="27" fill="#2E2015" transform="rotate(-15 478 768)"/>
  <ellipse cx="546" cy="768" rx="16" ry="27" fill="#2E2015" transform="rotate(15 546 768)"/>
</svg>
